HIERARCHY
ROOT Hips
{
	OFFSET -13.091600 -28.302996 44.698402
	CHANNELS 6 Xposition Yposition Zposition Zrotation Xrotation Yrotation
	JOINT Chest
	{
		OFFSET -0.673000 0.623899 5.369202
		CHANNELS 6 Xposition Yposition Zposition Zrotation Xrotation Yrotation
		JOINT Chest2
		{
			OFFSET 0.000000 0.000000 4.415001
			CHANNELS 6 Xposition Yposition Zposition Zrotation Xrotation Yrotation
			JOINT Neck
			{
				OFFSET 0.000000 0.000002 10.273300
				CHANNELS 6 Xposition Yposition Zposition Zrotation Xrotation Yrotation
				JOINT Head
				{
					OFFSET 0.000000 0.000000 2.173897
					CHANNELS 6 Xposition Yposition Zposition Zrotation Xrotation Yrotation
					End Site
					{
						OFFSET 0.000000 0.000000 9.961800
					}
				}
			}
			JOINT LeftCollar
			{
				OFFSET 2.359900 -0.565201 5.928101
				CHANNELS 6 Xposition Yposition Zposition Zrotation Xrotation Yrotation
				JOINT LeftShoulder
				{
					OFFSET 5.443700 0.000000 0.000000
					CHANNELS 6 Xposition Yposition Zposition Zrotation Xrotation Yrotation
					JOINT LeftElbow
					{
						OFFSET 0.000000 0.000000 -10.615799
						CHANNELS 6 Xposition Yposition Zposition Zrotation Xrotation Yrotation
						JOINT LeftWrist
						{
							OFFSET 0.000000 -0.000002 -13.110302
							CHANNELS 6 Xposition Yposition Zposition Zrotation Xrotation Yrotation
							End Site
							{
								OFFSET 0.000000 0.000000 -2.173901
							}
						}
					}
				}
			}
			JOINT RightCollar
			{
				OFFSET -2.636600 -1.718800 6.889698
				CHANNELS 6 Xposition Yposition Zposition Zrotation Xrotation Yrotation
				JOINT RightShoulder
				{
					OFFSET -4.139101 0.000000 0.000000
					CHANNELS 6 Xposition Yposition Zposition Zrotation Xrotation Yrotation
					JOINT RightElbow
					{
						OFFSET 0.000000 0.000000 -10.471802
						CHANNELS 6 Xposition Yposition Zposition Zrotation Xrotation Yrotation
						JOINT RightWrist
						{
							OFFSET 0.000000 0.000000 -12.281898
							CHANNELS 6 Xposition Yposition Zposition Zrotation Xrotation Yrotation
							End Site
							{
								OFFSET 0.000000 -0.000002 -2.173901
							}
						}
					}
				}
			}
		}
	}
	JOINT LeftHip
	{
		OFFSET 2.273400 0.176701 -2.518002
		CHANNELS 6 Xposition Yposition Zposition Zrotation Xrotation Yrotation
		JOINT LeftKnee
		{
			OFFSET 0.000000 -0.000002 -20.456402
			CHANNELS 6 Xposition Yposition Zposition Zrotation Xrotation Yrotation
			JOINT LeftAnkle
			{
				OFFSET 0.000000 -0.000002 -16.635300
				CHANNELS 6 Xposition Yposition Zposition Zrotation Xrotation Yrotation
				End Site
				{
					OFFSET 0.000000 -8.812399 0.000001
				}
			}
		}
	}
	JOINT RightHip
	{
		OFFSET -1.914800 0.018101 -2.699299
		CHANNELS 6 Xposition Yposition Zposition Zrotation Xrotation Yrotation
		JOINT RightKnee
		{
			OFFSET 0.000000 -0.000002 -20.148901
			CHANNELS 6 Xposition Yposition Zposition Zrotation Xrotation Yrotation
			JOINT RightAnkle
			{
				OFFSET 0.000000 -0.000002 -16.838301
				CHANNELS 6 Xposition Yposition Zposition Zrotation Xrotation Yrotation
				End Site
				{
					OFFSET 0.000000 -8.328398 0.000001
				}
			}
		}
	}
}
MOTION
Frames: 5
Frame Time: 0.041667
-50.118698 -48.308800 44.481903 3236.809600 2.532919 -13.719607 -0.673007 0.623900 5.369197 3.965383 -0.247584 -12.770974 0.000005 -0.000008 4.414993 1.571221 -1.057566 0.161737 -0.000007 -0.000004 10.273302 -48.321338 12.311752 32.536081 -0.000006 0.000005 2.173888 -1.829224 0.883554 -5.554918 2.359893 -0.565201 5.928102 14.235310 -5.389550 -32.782664 5.443697 0.000002 -0.000006 -53.755423 335.024085 -142.297484 -0.000005 -0.000001 -10.615777 942.326229 -159.018647 187.354876 0.000002 0.000000 -13.110300 -2234.343719 182.162470 -544.133085 -2.636611 -1.718803 6.889701 167.113146 -158.681537 217.895315 -4.139095 0.000012 -0.000001 -260.890058 -46.707736 156.837645 0.000000 0.000008 -10.471800 -360.545933 -31.246401 -726.112274 0.000002 0.000017 -12.281907 249.459983 179.434684 181.974025 2.273398 0.176707 -2.518007 -530.039072 -168.917040 -159.258606 0.000000 -0.000005 -20.456398 1242.844171 150.710501 -160.643126 -0.000010 -0.000001 -16.635305 -686.445978 6.641092 17.478241 -1.914802 0.018107 -2.699300 376.595457 186.758313 102.673569 -0.000006 -0.000004 -20.148899 -1056.189417 -220.507521 64.156062 -0.000002 -0.000010 -16.838297 1029.188641 8.599305 4.600299
-50.151199 -48.257698 44.469902 3236.910140 2.438185 -13.778013 -0.673006 0.623895 5.369223 3.862713 -0.090075 -12.783102 0.000005 -0.000004 4.415001 1.727953 -1.077176 0.173033 0.000000 -0.000002 10.273306 -48.176791 12.307258 32.603765 0.000001 -0.000007 2.173891 -1.698044 0.876531 -5.502327 2.359893 -0.565198 5.928103 14.204986 -5.316914 -32.750146 5.443697 -0.000006 0.000003 -53.111462 335.414717 -141.923872 -0.000001 -0.000006 -10.615789 942.728719 -159.053058 187.213272 0.000000 -0.000004 -13.110281 -2234.003193 182.140067 -544.170897 -2.636601 -1.718802 6.889703 167.112558 -158.697765 217.861000 -4.139091 0.000004 0.000004 -260.725669 -46.636839 156.868709 -0.000003 0.000004 -10.471801 -360.634780 -31.171744 -726.150359 0.000003 -0.000002 -12.281907 249.709257 179.415081 181.979244 2.273397 0.176699 -2.517992 -530.065956 -168.898284 -159.214783 0.000000 -0.000011 -20.456398 1242.543205 150.655108 -160.561177 -0.000006 -0.000004 -16.635300 -686.348880 6.588853 17.511319 -1.914806 0.018099 -2.699289 376.797685 186.986032 102.674286 0.000005 -0.000002 -20.148909 -1056.406672 -220.375412 64.114275 0.000003 -0.000004 -16.838301 1028.981877 8.565690 4.249767
-50.180199 -48.207596 44.456703 3237.023576 2.377224 -13.858169 -0.673007 0.623897 5.369205 3.752629 0.016180 -12.776910 0.000001 -0.000011 4.415009 1.880969 -1.081202 0.185360 0.000001 -0.000001 10.273324 -48.005121 12.318767 32.677298 0.000004 -0.000002 2.173905 -1.675851 0.910269 -5.528583 2.359902 -0.565204 5.928110 14.200063 -5.296729 -32.759032 5.443696 -0.000002 -0.000004 -52.573315 335.713032 -141.503584 0.000002 0.000006 -10.615795 942.912970 -159.034384 187.040946 0.000001 0.000002 -13.110297 -2233.555351 182.120956 -544.220075 -2.636598 -1.718803 6.889715 167.102572 -158.680307 217.794543 -4.139089 -0.000015 0.000008 -260.539150 -46.508623 156.844830 0.000000 0.000003 -10.471806 -360.691416 -31.083351 -726.154567 -0.000006 0.000002 -12.281909 249.618061 179.575850 181.859428 2.273395 0.176704 -2.518005 -530.147699 -168.846210 -159.139446 0.000005 -0.000002 -20.456400 1242.274260 150.633511 -160.483737 -0.000010 -0.000002 -16.635303 -686.238176 6.545885 17.559984 -1.914801 0.018099 -2.699301 376.953851 187.129466 102.642655 -0.000009 -0.000004 -20.148903 -1056.548302 -220.277357 64.073185 -0.000007 -0.000003 -16.838301 1028.804730 8.537643 3.952582
-50.205795 -48.158699 44.444004 3237.133077 2.321601 -13.959028 -0.673004 0.623899 5.369208 3.645966 0.110901 -12.745151 -0.000002 -0.000002 4.415010 2.040610 -1.087607 0.193419 -0.000010 -0.000011 10.273314 -47.818704 12.356694 32.748107 0.000003 -0.000010 2.173892 -1.678333 0.938377 -5.529393 2.359895 -0.565202 5.928105 14.208294 -5.288531 -32.710257 5.443693 -0.000002 -0.000000 -52.187846 335.999927 -141.168904 -0.000002 -0.000005 -10.615788 943.041268 -159.036624 186.906105 0.000006 -0.000010 -13.110285 -2233.165866 182.105657 -544.266301 -2.636607 -1.718809 6.889709 167.079883 -158.737107 217.685929 -4.139090 0.000011 -0.000006 -260.338070 -46.341215 156.884473 -0.000003 -0.000007 -10.471795 -360.551835 -31.057843 -726.081730 0.000004 0.000008 -12.281904 249.743709 179.517958 181.842107 2.273402 0.176694 -2.518000 -530.204854 -168.803959 -159.038482 -0.000004 -0.000004 -20.456398 1242.000834 150.618485 -160.414192 -0.000008 -0.000008 -16.635300 -686.144630 6.519219 17.627233 -1.914792 0.018095 -2.699293 377.080073 187.233804 102.605110 0.000000 -0.000003 -20.148895 -1056.605239 -220.270595 64.019896 0.000003 -0.000006 -16.838301 1028.688234 8.518064 3.753604
-50.227699 -48.111298 44.431404 3237.233181 2.296362 -14.091436 -0.673003 0.623898 5.369201 3.553753 0.169187 -12.692448 0.000001 -0.000002 4.415016 2.231438 -1.085754 0.207399 -0.000006 -0.000001 10.273304 -47.656552 12.401282 32.842224 0.000004 -0.000002 2.173895 -1.697546 0.975221 -5.551600 2.359896 -0.565211 5.928096 14.226343 -5.288022 -32.660049 5.443698 0.000003 -0.000001 -52.041848 336.119620 -140.913059 0.000001 0.000007 -10.615785 943.230765 -159.033291 186.887964 0.000002 -0.000002 -13.110297 -2233.051993 182.109946 -544.301709 -2.636603 -1.718804 6.889703 166.988604 -158.716985 217.508959 -4.139097 0.000002 -0.000009 -260.191849 -46.075647 156.778414 0.000001 0.000001 -10.471798 -360.553938 -31.014882 -726.052660 -0.000000 0.000014 -12.281891 249.953559 179.439110 181.853964 2.273400 0.176704 -2.518008 -530.221520 -168.755273 -158.893559 0.000003 -0.000004 -20.456396 1241.757133 150.643497 -160.371298 -0.000004 -0.000006 -16.635296 -686.075618 6.542543 17.679741 -1.914798 0.018097 -2.699307 377.186788 187.285959 102.537546 0.000005 -0.000001 -20.148903 -1056.637805 -220.234778 64.003961 -0.000001 -0.000006 -16.838301 1028.562996 8.490178 3.549815
